<?xml version="1.0" encoding="UTF-8" standalone="no"?>
<svg
   xmlns:dc="http://purl.org/dc/elements/1.1/"
   xmlns:cc="http://creativecommons.org/ns#"
   xmlns:rdf="http://www.w3.org/1999/02/22-rdf-syntax-ns#"
   xmlns:svg="http://www.w3.org/2000/svg"
   xmlns="http://www.w3.org/2000/svg"
   id="svg8"
   version="1.1"
   viewBox="0 0 210 297"
   height="297mm"
   width="210mm">
  <defs
     id="defs2" />
  <metadata
     id="metadata5">
    <rdf:RDF>
      <cc:Work
         rdf:about="">
        <dc:format>image/svg+xml</dc:format>
        <dc:type
           rdf:resource="http://purl.org/dc/dcmitype/StillImage" />
        <dc:title></dc:title>
      </cc:Work>
    </rdf:RDF>
  </metadata>
  <g
     id="layer1">
    <g
       id="text3715"
       style="font-style:normal;font-weight:normal;font-size:7.57729197px;line-height:1.25;font-family:sans-serif;letter-spacing:0px;word-spacing:0px;fill:#000000;fill-opacity:1;stroke:none;stroke-width:0.43715143"
       transform="scale(0.97319747,1.0275407)"
       aria-label="Wood Land
Otra
y Otro Mas">
      <path
         id="path3721"
         style="stroke-width:0.43715143"
         d="m -9.1549964,-11.928663 h 0.754769 l 1.161753,4.6692103 1.158053,-4.6692103 h 0.839866 l 1.161752,4.6692103 1.158053,-4.6692103 h 0.75847 l -1.387444,5.5238753 h -0.939762 l -1.165452,-4.7950053 -1.176553,4.7950053 h -0.939761 z" />
      <path
         id="path3723"
         style="stroke-width:0.43715143"
         d="m -0.04226744,-10.071339 q -0.547577,0 -0.865764,0.4291833 -0.31818696,0.425483 -0.31818696,1.169152 0,0.74367 0.31448696,1.172853 0.318187,0.425482 0.869464,0.425482 0.543878,0 0.862065,-0.429182 0.31818704,-0.429183 0.31818704,-1.169153 0,-0.73627 -0.31818704,-1.165452 -0.318187,-0.4328833 -0.862065,-0.4328833 z m 0,-0.577176 q 0.887964,0 1.39484404,0.577176 0.506879,0.5771773 0.506879,1.5983353 0,1.017459 -0.506879,1.598335 -0.50688004,0.577177 -1.39484404,0.577177 -0.891663,0 -1.39854296,-0.577177 -0.503179,-0.580876 -0.503179,-1.598335 0,-1.021158 0.503179,-1.5983353 0.50687996,-0.577176 1.39854296,-0.577176 z" />
      <path
         id="path3725"
         style="stroke-width:0.43715143"
         d="m 4.5899446,-10.071339 q -0.547578,0 -0.865765,0.4291833 -0.318187,0.425483 -0.318187,1.169152 0,0.74367 0.314487,1.172853 0.318188,0.425482 0.869465,0.425482 0.543878,0 0.862065,-0.429182 0.318187,-0.429183 0.318187,-1.169153 0,-0.73627 -0.318187,-1.165452 -0.318187,-0.4328833 -0.862065,-0.4328833 z m 0,-0.577176 q 0.887964,0 1.394843,0.577176 0.50688,0.5771773 0.50688,1.5983353 0,1.017459 -0.50688,1.598335 -0.506879,0.577177 -1.394843,0.577177 -0.891664,0 -1.398543,-0.577177 -0.50318,-0.580876 -0.50318,-1.598335 0,-1.021158 0.50318,-1.5983353 0.506879,-0.577176 1.398543,-0.577176 z" />
      <path
         id="path3727"
         style="stroke-width:0.43715143"
         d="m 10.343211,-9.9196447 v -2.2421093 h 0.680773 v 5.7569663 h -0.680773 v -0.621575 q -0.214591,0.369985 -0.5438784,0.551278 -0.325586,0.177593 -0.784368,0.177593 -0.751069,0 -1.22465,-0.599376 -0.469881,-0.599375 -0.469881,-1.576136 0,-0.97676 0.469881,-1.5761363 0.473581,-0.599375 1.22465,-0.599375 0.458782,0 0.784368,0.181292 0.3292874,0.177593 0.5438784,0.5475783 z m -2.3198054,1.446641 q 0,0.75107 0.307087,1.180252 0.310787,0.425483 0.850965,0.425483 0.540178,0 0.8509664,-0.425483 0.310787,-0.429182 0.310787,-1.180252 0,-0.751069 -0.310787,-1.176552 -0.3107884,-0.4291823 -0.8509664,-0.4291823 -0.540178,0 -0.850965,0.4291823 -0.307087,0.425483 -0.307087,1.176552 z" />
      <path
         id="path3729"
         style="stroke-width:0.43715143"
         d="m 14.868128,-11.928663 h 0.747369 v 4.8949013 h 2.689791 v 0.628974 h -3.43716 z" />
      <path
         id="path3731"
         style="stroke-width:0.43715143"
         d="m 20.939581,-8.4878027 q -0.825066,0 -1.143253,0.188692 -0.318187,0.188693 -0.318187,0.643774 0,0.362585 0.23679,0.577177 0.24049,0.210891 0.651173,0.210891 0.566077,0 0.906464,-0.399584 0.344086,-0.403283 0.344086,-1.069256 v -0.151694 z m 1.357845,-0.281189 v 2.364204 h -0.680772 v -0.628974 q -0.233091,0.377384 -0.580877,0.558677 -0.347786,0.177593 -0.850965,0.177593 -0.636374,0 -1.013759,-0.355186 -0.373685,-0.358885 -0.373685,-0.958261 0,-0.699271 0.466181,-1.054457 0.469881,-0.355185 1.398543,-0.355185 h 0.954562 v -0.0666 q 0,-0.469881 -0.310788,-0.72517 -0.307087,-0.2589903 -0.865765,-0.2589903 -0.355185,0 -0.691871,0.0851 -0.336687,0.0851 -0.647474,0.255289 v -0.6289743 q 0.373685,-0.144294 0.72517,-0.214591 0.351486,-0.074 0.684473,-0.074 0.899063,0 1.343045,0.466181 0.443982,0.4661813 0.443982,1.4133423 z" />
      <path
         id="path3733"
         style="stroke-width:0.43715143"
         d="m 27.147927,-8.9058857 v 2.501098 h -0.680773 v -2.478899 q 0,-0.588276 -0.22939,-0.880564 -0.229391,-0.2922883 -0.688172,-0.2922883 -0.551278,0 -0.869465,0.3514853 -0.318187,0.351486 -0.318187,0.958261 v 2.342005 h -0.684472 v -4.1438313 h 0.684472 v 0.6437743 q 0.24419,-0.3736853 0.573477,-0.5586783 0.332986,-0.184992 0.765868,-0.184992 0.714071,0 1.080356,0.443982 0.366286,0.4402823 0.366286,1.2986473 z" />
      <path
         id="path3735"
         style="stroke-width:0.43715143"
         d="m 31.239963,-9.9196447 v -2.2421093 h 0.680772 v 5.7569663 h -0.680772 v -0.621575 q -0.214592,0.369985 -0.543878,0.551278 -0.325587,0.177593 -0.784368,0.177593 -0.75107,0 -1.224651,-0.599376 -0.469881,-0.599375 -0.469881,-1.576136 0,-0.97676 0.469881,-1.5761363 0.473581,-0.599375 1.224651,-0.599375 0.458781,0 0.784368,0.181292 0.329286,0.177593 0.543878,0.5475783 z m -2.319806,1.446641 q 0,0.75107 0.307087,1.180252 0.310788,0.425483 0.850966,0.425483 0.540178,0 0.850965,-0.425483 0.310788,-0.429182 0.310788,-1.180252 0,-0.751069 -0.310788,-1.176552 -0.310787,-0.4291823 -0.850965,-0.4291823 -0.540178,0 -0.850966,0.4291823 -0.307087,0.425483 -0.307087,1.176552 z" />
      <path
         id="path3737"
         style="stroke-width:0.43715143"
         d="m -6.4208074,-1.9501687 q -0.813967,0 -1.294948,0.606775 -0.47728,0.60677603 -0.47728,1.65383303 0,1.04335797 0.47728,1.65013297 0.480981,0.606775 1.294948,0.606775 0.813967,0 1.287547,-0.606775 0.477281,-0.606775 0.477281,-1.65013297 0,-1.047057 -0.477281,-1.65383303 -0.47358,-0.606775 -1.287547,-0.606775 z m 0,-0.606775 q 1.161752,0 1.857324,0.780668 0.695572,0.77696803 0.695572,2.08671503 0,1.30604697 -0.695572,2.08671497 -0.695572,0.776969 -1.857324,0.776969 -1.165453,0 -1.864725,-0.776969 -0.695571,-0.776968 -0.695571,-2.08671497 0,-1.309747 0.695571,-2.08671503 0.699272,-0.780668 1.864725,-0.780668 z" />
      <path
         id="path3739"
         style="stroke-width:0.43715143"
         d="m -2.0549854,-2.2535567 v 1.176553 h 1.40224296 v 0.52907803 H -2.0549854 V 1.7015833 q 0,0.506879 0.136895,0.651173 0.140594,0.144294 0.566077,0.144294 h 0.69927096 v 0.569777 H -1.3520134 q -0.788068,0 -1.087756,-0.292288 -0.299688,-0.295988 -0.299688,-1.072956 v -2.24950897 h -0.49948 V -1.0770037 h 0.49948 v -1.176553 z" />
      <path
         id="path3741"
         style="stroke-width:0.43715143"
         d="m 2.6475236,-0.44062967 q -0.114695,-0.0666 -0.251589,-0.0962 -0.133195,-0.0333 -0.295988,-0.0333 -0.577177,0 -0.887964,0.377385 -0.30708804,0.373685 -0.30708804,1.076656 V 3.0668223 h -0.684472 v -4.143831 h 0.684472 v 0.64377303 q 0.21459204,-0.377384 0.55867804,-0.558677 0.344086,-0.18499203 0.836166,-0.18499203 0.0703,0 0.155393,0.0111 0.0851,0.0074 0.188693,0.0259 z" />
      <path
         id="path3743"
         style="stroke-width:0.43715143"
         d="m 5.2522186,0.98381233 q -0.825067,0 -1.143254,0.18869197 -0.318187,0.188693 -0.318187,0.643774 0,0.362585 0.23679,0.577177 0.240491,0.210891 0.651174,0.210891 0.566077,0 0.906463,-0.399584 0.344086,-0.403283 0.344086,-1.069256 V 0.98381233 Z m 1.357844,-0.281189 V 3.0668273 h -0.680772 v -0.628974 q -0.233091,0.377384 -0.580876,0.558677 -0.347786,0.177593 -0.850966,0.177593 -0.636374,0 -1.013759,-0.355186 -0.373684,-0.358885 -0.373684,-0.958261 0,-0.699271 0.466181,-1.05445697 0.469881,-0.355185 1.398543,-0.355185 h 0.954561 v -0.0666 q 0,-0.469881 -0.310787,-0.72517 -0.307088,-0.25899 -0.865765,-0.25899 -0.355186,0 -0.691872,0.0851 -0.336686,0.0851 -0.647474,0.255289 v -0.628974 q 0.373685,-0.14429403 0.725171,-0.21459103 0.351485,-0.074 0.684472,-0.074 0.899063,0 1.343045,0.46618103 0.443982,0.466181 0.443982,1.413342 z" />
      <path
         id="path3745"
         style="stroke-width:0.43715143"
         d="m -6.9683854,12.923226 q -0.288588,0.73997 -0.562377,0.965661 -0.273789,0.225691 -0.73257,0.225691 h -0.543878 v -0.569777 h 0.399583 q 0.281189,0 0.436583,-0.133194 0.155393,-0.133195 0.344086,-0.628975 l 0.122095,-0.310787 -1.676032,-4.0772337 h 0.721471 l 1.294947,3.2410677 1.294947,-3.2410677 h 0.721471 z" />
      <path
         id="path3747"
         style="stroke-width:0.43715143"
         d="m 0.47571156,7.5214463 q -0.813967,0 -1.294947,0.606775 -0.47728096,0.606776 -0.47728096,1.653833 0,1.0433577 0.47728096,1.6501327 0.48098,0.606775 1.294947,0.606775 0.81396704,0 1.28754804,-0.606775 0.477281,-0.606775 0.477281,-1.6501327 0,-1.047057 -0.477281,-1.653833 -0.473581,-0.606775 -1.28754804,-0.606775 z m 0,-0.606775 q 1.16175304,0 1.85732504,0.780668 0.695572,0.776968 0.695572,2.086715 0,1.3060467 -0.695572,2.0867147 -0.695572,0.776969 -1.85732504,0.776969 -1.165452,0 -1.86472396,-0.776969 -0.695572,-0.776968 -0.695572,-2.0867147 0,-1.309747 0.695572,-2.086715 0.69927196,-0.780668 1.86472396,-0.780668 z" />
      <path
         id="path3749"
         style="stroke-width:0.43715143"
         d="m 4.8415346,7.2180583 v 1.176553 h 1.402243 v 0.529078 h -1.402243 v 2.2495087 q 0,0.506879 0.136895,0.651173 0.140594,0.144294 0.566077,0.144294 h 0.699271 v 0.569777 h -0.699271 q -0.788068,0 -1.087756,-0.292288 -0.299688,-0.295988 -0.299688,-1.072956 V 8.9236893 h -0.49948 v -0.529078 h 0.49948 v -1.176553 z" />
      <path
         id="path3751"
         style="stroke-width:0.43715143"
         d="m 9.5440426,9.0309853 q -0.114695,-0.0666 -0.25159,-0.0962 -0.133194,-0.0333 -0.295988,-0.0333 -0.577176,0 -0.887964,0.377385 -0.307087,0.373684 -0.307087,1.0766557 v 2.182911 H 7.1169416 V 8.3946063 h 0.684472 v 0.643773 q 0.214591,-0.377384 0.558677,-0.558677 0.344086,-0.184992 0.836166,-0.184992 0.0703,0 0.155394,0.0111 0.0851,0.0074 0.188692,0.0259 z" />
      <path
         id="path3753"
         style="stroke-width:0.43715143"
         d="m 11.708456,8.8718913 q -0.547577,0 -0.865765,0.429183 -0.318187,0.425482 -0.318187,1.1691517 0,0.74367 0.314488,1.172853 0.318187,0.425482 0.869464,0.425482 0.543878,0 0.862065,-0.429182 0.318187,-0.429183 0.318187,-1.169153 0,-0.7362697 -0.318187,-1.1654517 -0.318187,-0.432883 -0.862065,-0.432883 z m 0,-0.577176 q 0.887964,0 1.394844,0.577176 0.506879,0.577177 0.506879,1.5983347 0,1.017459 -0.506879,1.598335 -0.50688,0.577177 -1.394844,0.577177 -0.891663,0 -1.398543,-0.577177 -0.5031794,-0.580876 -0.5031794,-1.598335 0,-1.0211577 0.5031794,-1.5983347 0.50688,-0.577176 1.398543,-0.577176 z" />
      <path
         id="path3755"
         style="stroke-width:0.43715143"
         d="m 17.176834,7.0145673 h 1.113655 l 1.409642,3.7590467 1.417043,-3.7590467 h 1.113655 V 12.538442 H 21.501958 V 7.6879393 L 20.077516,11.476585 H 19.326447 L 17.902005,7.6879393 v 4.8505027 h -0.725171 z" />
      <path
         id="path3757"
         style="stroke-width:0.43715143"
         d="m 25.571793,10.455427 q -0.825067,0 -1.143254,0.188692 -0.318187,0.188692 -0.318187,0.643774 0,0.362585 0.236791,0.577177 0.24049,0.210891 0.651173,0.210891 0.566077,0 0.906463,-0.399584 0.344086,-0.403283 0.344086,-1.069256 v -0.151694 z m 1.357845,-0.281189 v 2.364204 h -0.680773 v -0.628974 q -0.23309,0.377384 -0.580876,0.558677 -0.347786,0.177593 -0.850965,0.177593 -0.636375,0 -1.013759,-0.355186 -0.373685,-0.358885 -0.373685,-0.958261 0,-0.699271 0.466181,-1.054457 0.469881,-0.3551857 1.398543,-0.3551857 h 0.954561 v -0.0666 q 0,-0.469881 -0.310787,-0.72517 -0.307088,-0.25899 -0.865765,-0.25899 -0.355185,0 -0.691872,0.0851 -0.336686,0.0851 -0.647473,0.255289 v -0.628974 q 0.373684,-0.144294 0.72517,-0.214591 0.351486,-0.074 0.684472,-0.074 0.899064,0 1.343046,0.466181 0.443982,0.466181 0.443982,1.4133417 z" />
      <path
         id="path3759"
         style="stroke-width:0.43715143"
         d="m 30.977273,8.5167063 v 0.643773 q -0.288588,-0.147994 -0.599376,-0.221991 -0.310787,-0.074 -0.643774,-0.074 -0.506879,0 -0.762169,0.155394 -0.251589,0.155394 -0.251589,0.466181 0,0.236791 0.181292,0.373685 0.181293,0.133195 0.728871,0.2552897 l 0.23309,0.0518 q 0.725171,0.155393 1.028558,0.440282 0.307088,0.281188 0.307088,0.788068 0,0.577176 -0.458782,0.913862 -0.455081,0.336687 -1.254249,0.336687 -0.332986,0 -0.695571,-0.0666 -0.358886,-0.0629 -0.758469,-0.192392 v -0.702968 q 0.377384,0.196092 0.743669,0.295988 0.366285,0.0962 0.725171,0.0962 0.48098,0 0.73997,-0.162793 0.258989,-0.166494 0.258989,-0.466181 0,-0.277489 -0.188692,-0.425483 -0.184993,-0.147994 -0.817667,-0.284889 l -0.23679,-0.0555 Q 28.624168,10.547924 28.34298,10.274135 28.061791,9.9966463 28.061791,9.5156663 q 0,-0.584576 0.414384,-0.902763 0.414383,-0.318187 1.176552,-0.318187 0.377384,0 0.710371,0.0555 0.332986,0.0555 0.614175,0.166494 z" />
    </g>
  </g>
</svg>
